<svg width="843" height="245" viewBox="0 0 843 245" fill="none" xmlns="http://www.w3.org/2000/svg">
<g clip-path="url(#clip0_199_7968)">
<rect width="843" height="245" rx="20" fill-opacity="0"/>
<path d="M277.312 82.9045V126.28H263.711V109.371H250.784V126.28H237.183V82.9045H250.784V98.5271H263.711V82.9045H277.312ZM325.091 82.9045L309.53 113.108V126.28H295.929V113.108L280.368 82.9045H295.929L302.852 98.2821L309.775 82.9045H325.091ZM363.656 97.7919C363.656 100.528 363.023 103.02 361.757 105.266C360.491 107.472 358.612 109.228 356.12 110.535C353.67 111.842 350.688 112.496 347.176 112.496H341.784V126.28H328.183V82.9045H347.176C352.485 82.9045 356.549 84.2523 359.367 86.948C362.226 89.6437 363.656 93.2583 363.656 97.7919ZM345.644 101.774C348.462 101.774 349.871 100.447 349.871 97.7919C349.871 95.1371 348.462 93.8097 345.644 93.8097H341.784V101.774H345.644ZM381.571 93.7484V99.0785H395.049V109.31H381.571V115.436H396.887V126.28H367.97V82.9045H396.887V93.7484H381.571ZM437.419 126.28L420.939 107.227V126.28H413.955V83.7009H420.939V103.122L437.481 83.7009H446.242L427.739 105.021L446.548 126.28H437.419ZM467.367 126.832C464.181 126.832 461.301 126.117 458.728 124.687C456.155 123.217 454.133 121.175 452.663 118.561C451.193 115.906 450.457 112.843 450.457 109.371C450.457 105.94 451.213 102.897 452.724 100.243C454.235 97.5877 456.298 95.5455 458.912 94.116C461.526 92.6865 464.446 91.9717 467.673 91.9717C470.9 91.9717 473.82 92.6865 476.434 94.116C479.048 95.5455 481.11 97.5877 482.622 100.243C484.133 102.897 484.888 105.94 484.888 109.371C484.888 112.802 484.112 115.845 482.56 118.5C481.008 121.154 478.884 123.217 476.189 124.687C473.534 126.117 470.593 126.832 467.367 126.832ZM467.367 120.766C469.164 120.766 470.838 120.338 472.39 119.48C473.983 118.622 475.27 117.336 476.25 115.62C477.23 113.905 477.72 111.822 477.72 109.371C477.72 106.92 477.251 104.858 476.311 103.183C475.372 101.468 474.126 100.181 472.574 99.3236C471.022 98.4658 469.347 98.037 467.55 98.037C465.753 98.037 464.079 98.4658 462.527 99.3236C461.015 100.181 459.81 101.468 458.912 103.183C458.013 104.858 457.564 106.92 457.564 109.371C457.564 113.006 458.483 115.824 460.321 117.826C462.2 119.786 464.548 120.766 467.367 120.766ZM498.777 97.4243C499.798 95.7089 501.146 94.3815 502.82 93.4421C504.536 92.4619 506.558 91.9717 508.886 91.9717V99.201H507.109C504.373 99.201 502.289 99.8954 500.86 101.284C499.471 102.673 498.777 105.082 498.777 108.513V126.28H491.793V92.5231H498.777V97.4243ZM546.245 108.575C546.245 109.841 546.163 110.984 546 112.005H520.207C520.411 114.701 521.412 116.866 523.209 118.5C525.006 120.133 527.212 120.95 529.826 120.95C533.583 120.95 536.238 119.378 537.79 116.233H545.326C544.305 119.337 542.446 121.89 539.75 123.891C537.096 125.851 533.787 126.832 529.826 126.832C526.599 126.832 523.699 126.117 521.126 124.687C518.594 123.217 516.592 121.175 515.122 118.561C513.692 115.906 512.978 112.843 512.978 109.371C512.978 105.899 513.672 102.857 515.061 100.243C516.49 97.5877 518.471 95.5455 521.003 94.116C523.576 92.6865 526.517 91.9717 529.826 91.9717C533.011 91.9717 535.85 92.6661 538.341 94.0548C540.833 95.4434 542.773 97.4039 544.162 99.9362C545.55 102.428 546.245 105.307 546.245 108.575ZM538.954 106.369C538.913 103.796 537.994 101.733 536.197 100.181C534.4 98.6292 532.174 97.8532 529.519 97.8532C527.109 97.8532 525.047 98.6292 523.331 100.181C521.616 101.692 520.595 103.755 520.268 106.369H538.954ZM560.102 97.4856C561.286 95.9336 562.9 94.6266 564.942 93.5646C566.984 92.5027 569.292 91.9717 571.865 91.9717C574.806 91.9717 577.481 92.7069 579.891 94.1773C582.341 95.6068 584.261 97.6286 585.65 100.243C587.038 102.857 587.733 105.859 587.733 109.249C587.733 112.639 587.038 115.681 585.65 118.377C584.261 121.032 582.341 123.115 579.891 124.626C577.481 126.096 574.806 126.832 571.865 126.832C569.292 126.832 567.005 126.321 565.003 125.3C563.002 124.238 561.368 122.931 560.102 121.379V142.332H553.118V92.5231H560.102V97.4856ZM580.626 109.249C580.626 106.92 580.136 104.919 579.156 103.245C578.216 101.529 576.95 100.243 575.357 99.3848C573.805 98.4863 572.13 98.037 570.333 98.037C568.577 98.037 566.902 98.4863 565.31 99.3848C563.758 100.283 562.491 101.59 561.511 103.306C560.572 105.021 560.102 107.043 560.102 109.371C560.102 111.699 560.572 113.741 561.511 115.498C562.491 117.213 563.758 118.52 565.31 119.419C566.902 120.317 568.577 120.766 570.333 120.766C572.13 120.766 573.805 120.317 575.357 119.419C576.95 118.479 578.216 117.131 579.156 115.375C580.136 113.619 580.626 111.577 580.626 109.249ZM625.578 108.575C625.578 109.841 625.497 110.984 625.333 112.005H599.541C599.745 114.701 600.745 116.866 602.543 118.5C604.34 120.133 606.545 120.95 609.159 120.95C612.917 120.95 615.572 119.378 617.124 116.233H624.659C623.638 119.337 621.78 121.89 619.084 123.891C616.429 125.851 613.121 126.832 609.159 126.832C605.933 126.832 603.033 126.117 600.46 124.687C597.927 123.217 595.926 121.175 594.456 118.561C593.026 115.906 592.311 112.843 592.311 109.371C592.311 105.899 593.006 102.857 594.394 100.243C595.824 97.5877 597.805 95.5455 600.337 94.116C602.91 92.6865 605.851 91.9717 609.159 91.9717C612.345 91.9717 615.184 92.6661 617.675 94.0548C620.167 95.4434 622.107 97.4039 623.495 99.9362C624.884 102.428 625.578 105.307 625.578 108.575ZM618.288 106.369C618.247 103.796 617.328 101.733 615.531 100.181C613.734 98.6292 611.508 97.8532 608.853 97.8532C606.443 97.8532 604.381 98.6292 602.665 100.181C600.95 101.692 599.929 103.755 599.602 106.369H618.288ZM640.6 98.2208V116.907C640.6 118.173 640.886 119.092 641.457 119.664C642.07 120.195 643.091 120.46 644.521 120.46H648.809V126.28H643.295C640.15 126.28 637.741 125.545 636.066 124.075C634.392 122.604 633.554 120.215 633.554 116.907V98.2208H629.572V92.5231H633.554V84.1298H640.6V92.5231H648.809V98.2208H640.6ZM685.634 92.5231L664.926 142.148H657.697L664.559 125.729L651.264 92.5231H659.045L668.541 118.255L678.405 92.5231H685.634ZM688.577 109.371C688.577 105.899 689.271 102.857 690.66 100.243C692.089 97.5877 694.05 95.5455 696.541 94.116C699.033 92.6865 701.892 91.9717 705.118 91.9717C709.203 91.9717 712.572 92.952 715.227 94.9125C717.923 96.8321 719.74 99.589 720.68 103.183H713.144C712.531 101.509 711.551 100.202 710.203 99.2623C708.855 98.3229 707.16 97.8532 705.118 97.8532C702.259 97.8532 699.972 98.8743 698.257 100.916C696.582 102.918 695.745 105.736 695.745 109.371C695.745 113.006 696.582 115.845 698.257 117.887C699.972 119.929 702.259 120.95 705.118 120.95C709.162 120.95 711.837 119.174 713.144 115.62H720.68C719.699 119.051 717.861 121.787 715.166 123.83C712.47 125.831 709.121 126.832 705.118 126.832C701.892 126.832 699.033 126.117 696.541 124.687C694.05 123.217 692.089 121.175 690.66 118.561C689.271 115.906 688.577 112.843 688.577 109.371ZM731.193 88.0508C729.927 88.0508 728.865 87.6219 728.008 86.7642C727.15 85.9065 726.721 84.8445 726.721 83.5784C726.721 82.3122 727.15 81.2503 728.008 80.3926C728.865 79.5349 729.927 79.106 731.193 79.106C732.419 79.106 733.46 79.5349 734.318 80.3926C735.176 81.2503 735.604 82.3122 735.604 83.5784C735.604 84.8445 735.176 85.9065 734.318 86.7642C733.46 87.6219 732.419 88.0508 731.193 88.0508ZM734.624 132.897C734.624 136.205 733.787 138.595 732.112 140.065C730.479 141.576 728.089 142.332 724.944 142.332H721.33V136.45H723.719C725.149 136.45 726.149 136.164 726.721 135.593C727.334 135.062 727.64 134.163 727.64 132.897V92.5231H734.624V132.897ZM774.733 108.575C774.733 109.841 774.651 110.984 774.488 112.005H748.695C748.899 114.701 749.9 116.866 751.697 118.5C753.494 120.133 755.7 120.95 758.314 120.95C762.071 120.95 764.726 119.378 766.278 116.233H773.814C772.793 119.337 770.934 121.89 768.239 123.891C765.584 125.851 762.276 126.832 758.314 126.832C755.087 126.832 752.187 126.117 749.614 124.687C747.082 123.217 745.08 121.175 743.61 118.561C742.181 115.906 741.466 112.843 741.466 109.371C741.466 105.899 742.16 102.857 743.549 100.243C744.978 97.5877 746.959 95.5455 749.492 94.116C752.065 92.6865 755.005 91.9717 758.314 91.9717C761.5 91.9717 764.338 92.6661 766.83 94.0548C769.321 95.4434 771.261 97.4039 772.65 99.9362C774.039 102.428 774.733 105.307 774.733 108.575ZM767.442 106.369C767.401 103.796 766.482 101.733 764.685 100.181C762.888 98.6292 760.662 97.8532 758.007 97.8532C755.598 97.8532 753.535 98.6292 751.82 100.181C750.104 101.692 749.083 103.755 748.756 106.369H767.442Z" fill="#0ea5e9"/>
<path d="M252.364 167.72V153.474H253.605L263.434 165.847H262.783V153.474H264.269V167.72H263.027L253.218 155.347H253.87V167.72H252.364ZM275.308 167.72V165.359L275.247 164.972V161.024C275.247 160.115 274.99 159.417 274.474 158.928C273.972 158.44 273.219 158.196 272.215 158.196C271.523 158.196 270.865 158.311 270.241 158.542C269.617 158.772 269.088 159.078 268.654 159.457L268.003 158.379C268.545 157.918 269.196 157.565 269.956 157.321C270.716 157.063 271.516 156.934 272.358 156.934C273.741 156.934 274.806 157.28 275.553 157.972C276.312 158.65 276.692 159.688 276.692 161.085V167.72H275.308ZM271.625 167.821C270.825 167.821 270.126 167.693 269.529 167.435C268.946 167.163 268.498 166.797 268.186 166.336C267.874 165.861 267.718 165.318 267.718 164.708C267.718 164.152 267.847 163.65 268.104 163.202C268.376 162.741 268.81 162.374 269.407 162.103C270.017 161.818 270.831 161.676 271.849 161.676H275.532V162.754H271.89C270.858 162.754 270.139 162.937 269.732 163.304C269.339 163.67 269.142 164.124 269.142 164.667C269.142 165.278 269.38 165.766 269.854 166.132C270.329 166.499 270.994 166.682 271.849 166.682C272.663 166.682 273.362 166.499 273.945 166.132C274.542 165.753 274.976 165.21 275.247 164.504L275.573 165.502C275.302 166.207 274.827 166.77 274.148 167.191C273.484 167.611 272.643 167.821 271.625 167.821ZM285.033 167.821C284.124 167.821 283.33 167.652 282.652 167.313C281.973 166.974 281.444 166.465 281.064 165.786C280.698 165.108 280.515 164.26 280.515 163.243V157.036H281.96V163.08C281.96 164.219 282.238 165.081 282.794 165.664C283.364 166.234 284.158 166.519 285.175 166.519C285.921 166.519 286.566 166.37 287.109 166.071C287.665 165.759 288.085 165.312 288.37 164.728C288.669 164.145 288.818 163.446 288.818 162.632V157.036H290.263V167.72H288.879V164.789L289.103 165.318C288.764 166.105 288.235 166.723 287.516 167.17C286.81 167.604 285.982 167.821 285.033 167.821ZM295.429 164.952L295.47 163.1L302.125 157.036H303.895L299.194 161.533L298.38 162.225L295.429 164.952ZM294.29 167.72V152.62H295.735V167.72H294.29ZM302.572 167.72L298.116 162.164L299.052 161.045L304.343 167.72H302.572ZM313.009 167.72V165.359L312.947 164.972V161.024C312.947 160.115 312.69 159.417 312.174 158.928C311.672 158.44 310.919 158.196 309.915 158.196C309.223 158.196 308.565 158.311 307.941 158.542C307.317 158.772 306.788 159.078 306.354 159.457L305.703 158.379C306.245 157.918 306.897 157.565 307.656 157.321C308.416 157.063 309.217 156.934 310.058 156.934C311.442 156.934 312.507 157.28 313.253 157.972C314.012 158.65 314.392 159.688 314.392 161.085V167.72H313.009ZM309.325 167.821C308.525 167.821 307.826 167.693 307.229 167.435C306.646 167.163 306.198 166.797 305.886 166.336C305.574 165.861 305.418 165.318 305.418 164.708C305.418 164.152 305.547 163.65 305.804 163.202C306.076 162.741 306.51 162.374 307.107 162.103C307.717 161.818 308.531 161.676 309.549 161.676H313.232V162.754H309.59C308.559 162.754 307.84 162.937 307.432 163.304C307.039 163.67 306.842 164.124 306.842 164.667C306.842 165.278 307.08 165.766 307.555 166.132C308.029 166.499 308.694 166.682 309.549 166.682C310.363 166.682 311.062 166.499 311.645 166.132C312.242 165.753 312.676 165.21 312.947 164.504L313.273 165.502C313.002 166.207 312.527 166.77 311.849 167.191C311.184 167.611 310.343 167.821 309.325 167.821ZM326.512 167.821C325.631 167.821 324.796 167.699 324.009 167.455C323.222 167.197 322.605 166.879 322.157 166.499L322.809 165.359C323.243 165.685 323.799 165.97 324.477 166.214C325.156 166.444 325.868 166.56 326.614 166.56C327.632 166.56 328.364 166.404 328.812 166.092C329.26 165.766 329.484 165.339 329.484 164.81C329.484 164.416 329.355 164.111 329.097 163.894C328.853 163.663 328.527 163.494 328.12 163.385C327.713 163.263 327.259 163.161 326.757 163.08C326.255 162.998 325.753 162.903 325.251 162.795C324.762 162.686 324.315 162.53 323.907 162.327C323.5 162.11 323.168 161.818 322.91 161.452C322.666 161.085 322.544 160.597 322.544 159.987C322.544 159.403 322.707 158.881 323.032 158.42C323.358 157.958 323.833 157.599 324.457 157.341C325.095 157.07 325.868 156.934 326.777 156.934C327.469 156.934 328.161 157.029 328.853 157.219C329.545 157.395 330.114 157.633 330.562 157.931L329.931 159.091C329.456 158.766 328.948 158.535 328.405 158.399C327.862 158.25 327.32 158.175 326.777 158.175C325.814 158.175 325.101 158.345 324.64 158.684C324.192 159.01 323.969 159.43 323.969 159.946C323.969 160.353 324.091 160.672 324.335 160.902C324.593 161.133 324.925 161.316 325.332 161.452C325.753 161.574 326.207 161.676 326.696 161.757C327.197 161.838 327.693 161.94 328.181 162.062C328.683 162.171 329.138 162.327 329.545 162.53C329.965 162.72 330.298 162.998 330.542 163.365C330.8 163.717 330.928 164.186 330.928 164.769C330.928 165.393 330.752 165.936 330.399 166.397C330.06 166.845 329.558 167.197 328.893 167.455C328.242 167.699 327.448 167.821 326.512 167.821ZM336.958 167.821C335.954 167.821 335.181 167.55 334.638 167.007C334.095 166.465 333.824 165.698 333.824 164.708V154.675H335.269V164.626C335.269 165.251 335.425 165.732 335.737 166.071C336.062 166.411 336.524 166.58 337.121 166.58C337.758 166.58 338.287 166.397 338.708 166.031L339.217 167.069C338.932 167.326 338.586 167.516 338.179 167.638C337.785 167.76 337.378 167.821 336.958 167.821ZM331.911 158.236V157.036H338.525V158.236H331.911ZM348.542 167.72V165.359L348.481 164.972V161.024C348.481 160.115 348.224 159.417 347.708 158.928C347.206 158.44 346.453 158.196 345.449 158.196C344.757 158.196 344.099 158.311 343.475 158.542C342.851 158.772 342.322 159.078 341.888 159.457L341.237 158.379C341.779 157.918 342.43 157.565 343.19 157.321C343.95 157.063 344.75 156.934 345.592 156.934C346.975 156.934 348.04 157.28 348.787 157.972C349.546 158.65 349.926 159.688 349.926 161.085V167.72H348.542ZM344.859 167.821C344.059 167.821 343.36 167.693 342.763 167.435C342.179 167.163 341.732 166.797 341.42 166.336C341.108 165.861 340.952 165.318 340.952 164.708C340.952 164.152 341.081 163.65 341.338 163.202C341.61 162.741 342.044 162.374 342.641 162.103C343.251 161.818 344.065 161.676 345.083 161.676H348.766V162.754H345.124C344.092 162.754 343.373 162.937 342.966 163.304C342.573 163.67 342.376 164.124 342.376 164.667C342.376 165.278 342.614 165.766 343.088 166.132C343.563 166.499 344.228 166.682 345.083 166.682C345.897 166.682 346.596 166.499 347.179 166.132C347.776 165.753 348.21 165.21 348.481 164.504L348.807 165.502C348.536 166.207 348.061 166.77 347.382 167.191C346.718 167.611 345.877 167.821 344.859 167.821ZM352.263 171.769C351.829 171.769 351.415 171.708 351.022 171.586C350.615 171.478 350.276 171.308 350.004 171.078L350.513 169.979C350.947 170.345 351.504 170.528 352.182 170.528C352.752 170.528 353.186 170.359 353.484 170.019C353.796 169.68 353.952 169.178 353.952 168.513V157.036H355.397V168.513C355.397 169.504 355.126 170.291 354.583 170.874C354.054 171.471 353.281 171.769 352.263 171.769ZM354.685 154.675C354.387 154.675 354.136 154.573 353.932 154.37C353.729 154.166 353.627 153.922 353.627 153.637C353.627 153.352 353.729 153.115 353.932 152.925C354.136 152.721 354.387 152.62 354.685 152.62C354.984 152.62 355.235 152.715 355.438 152.905C355.642 153.094 355.743 153.332 355.743 153.617C355.743 153.915 355.642 154.166 355.438 154.37C355.248 154.573 354.997 154.675 354.685 154.675ZM363.973 167.821C362.861 167.821 361.884 167.591 361.043 167.13C360.202 166.655 359.544 166.01 359.069 165.196C358.594 164.369 358.357 163.426 358.357 162.368C358.357 161.309 358.58 160.373 359.028 159.559C359.489 158.745 360.114 158.108 360.9 157.646C361.701 157.171 362.596 156.934 363.587 156.934C364.591 156.934 365.479 157.165 366.253 157.626C367.039 158.074 367.657 158.711 368.105 159.539C368.552 160.353 368.776 161.296 368.776 162.368C368.776 162.435 368.769 162.51 368.756 162.591C368.756 162.659 368.756 162.734 368.756 162.815H359.456V161.737H367.982L367.413 162.164C367.413 161.391 367.243 160.706 366.904 160.109C366.578 159.498 366.131 159.023 365.561 158.684C364.991 158.345 364.333 158.175 363.587 158.175C362.854 158.175 362.196 158.345 361.613 158.684C361.029 159.023 360.575 159.498 360.249 160.109C359.924 160.719 359.761 161.418 359.761 162.205V162.429C359.761 163.243 359.937 163.962 360.29 164.586C360.656 165.196 361.158 165.678 361.796 166.031C362.447 166.37 363.186 166.539 364.014 166.539C364.665 166.539 365.269 166.424 365.825 166.193C366.395 165.963 366.883 165.61 367.29 165.135L368.105 166.071C367.63 166.641 367.033 167.075 366.314 167.374C365.608 167.672 364.828 167.821 363.973 167.821ZM379.913 167.821C379.031 167.821 378.196 167.699 377.409 167.455C376.623 167.197 376.005 166.879 375.558 166.499L376.209 165.359C376.643 165.685 377.199 165.97 377.878 166.214C378.556 166.444 379.268 166.56 380.014 166.56C381.032 166.56 381.764 166.404 382.212 166.092C382.66 165.766 382.884 165.339 382.884 164.81C382.884 164.416 382.755 164.111 382.497 163.894C382.253 163.663 381.927 163.494 381.52 163.385C381.113 163.263 380.659 163.161 380.157 163.08C379.655 162.998 379.153 162.903 378.651 162.795C378.162 162.686 377.715 162.53 377.308 162.327C376.901 162.11 376.568 161.818 376.311 161.452C376.066 161.085 375.944 160.597 375.944 159.987C375.944 159.403 376.107 158.881 376.433 158.42C376.758 157.958 377.233 157.599 377.857 157.341C378.495 157.07 379.268 156.934 380.177 156.934C380.869 156.934 381.561 157.029 382.253 157.219C382.945 157.395 383.515 157.633 383.962 157.931L383.331 159.091C382.857 158.766 382.348 158.535 381.805 158.399C381.262 158.25 380.72 158.175 380.177 158.175C379.214 158.175 378.502 158.345 378.04 158.684C377.593 159.01 377.369 159.43 377.369 159.946C377.369 160.353 377.491 160.672 377.735 160.902C377.993 161.133 378.325 161.316 378.732 161.452C379.153 161.574 379.607 161.676 380.096 161.757C380.598 161.838 381.093 161.94 381.581 162.062C382.083 162.171 382.538 162.327 382.945 162.53C383.365 162.72 383.698 162.998 383.942 163.365C384.2 163.717 384.329 164.186 384.329 164.769C384.329 165.393 384.152 165.936 383.8 166.397C383.46 166.845 382.958 167.197 382.294 167.455C381.642 167.699 380.849 167.821 379.913 167.821ZM386.98 167.72V157.036H388.425V167.72H386.98ZM387.713 154.675C387.414 154.675 387.163 154.573 386.96 154.37C386.756 154.166 386.654 153.922 386.654 153.637C386.654 153.352 386.756 153.115 386.96 152.925C387.163 152.721 387.414 152.62 387.713 152.62C388.011 152.62 388.262 152.715 388.465 152.905C388.669 153.094 388.771 153.332 388.771 153.617C388.771 153.915 388.669 154.166 388.465 154.37C388.276 154.573 388.025 154.675 387.713 154.675ZM399.181 172.197C398.516 172.197 397.974 172.014 397.553 171.647C397.146 171.295 396.943 170.813 396.943 170.202C396.943 169.768 397.065 169.287 397.309 168.758C397.567 168.242 398.021 167.727 398.672 167.211L399.14 167.435C398.815 167.557 398.469 167.652 398.103 167.72C397.75 167.788 397.377 167.821 396.983 167.821C395.871 167.821 394.894 167.591 394.053 167.13C393.212 166.655 392.554 166.01 392.079 165.196C391.604 164.369 391.367 163.426 391.367 162.368C391.367 161.309 391.59 160.373 392.038 159.559C392.499 158.745 393.123 158.108 393.91 157.646C394.711 157.171 395.606 156.934 396.597 156.934C397.601 156.934 398.489 157.165 399.263 157.626C400.049 158.074 400.667 158.711 401.114 159.539C401.562 160.353 401.786 161.296 401.786 162.368C401.786 162.435 401.779 162.51 401.766 162.591C401.766 162.659 401.766 162.734 401.766 162.815H392.465V161.737H400.992L400.423 162.164C400.423 161.391 400.253 160.706 399.914 160.109C399.588 159.498 399.14 159.023 398.571 158.684C398.001 158.345 397.343 158.175 396.597 158.175C395.864 158.175 395.206 158.345 394.623 158.684C394.039 159.023 393.585 159.498 393.259 160.109C392.934 160.719 392.771 161.418 392.771 162.205V162.429C392.771 163.243 392.947 163.962 393.3 164.586C393.666 165.196 394.168 165.678 394.806 166.031C395.457 166.37 396.196 166.539 397.024 166.539C397.675 166.539 398.279 166.424 398.835 166.193C399.405 165.963 399.893 165.61 400.3 165.135L401.114 166.071C401.006 166.207 400.884 166.329 400.748 166.438C400.626 166.546 400.49 166.668 400.341 166.804C399.703 167.347 399.215 167.815 398.876 168.208C398.55 168.615 398.32 168.968 398.184 169.266C398.062 169.565 398.001 169.85 398.001 170.121C398.001 170.528 398.123 170.827 398.367 171.017C398.625 171.206 398.951 171.301 399.344 171.301C399.561 171.301 399.778 171.267 399.995 171.2C400.226 171.132 400.423 171.037 400.585 170.915L400.911 171.708C400.667 171.858 400.395 171.973 400.097 172.054C399.812 172.149 399.507 172.197 399.181 172.197ZM415.568 167.821C414.646 167.821 413.811 167.611 413.065 167.191C412.319 166.756 411.722 166.139 411.274 165.339C410.84 164.525 410.623 163.534 410.623 162.368C410.623 161.201 410.84 160.217 411.274 159.417C411.708 158.603 412.298 157.985 413.045 157.565C413.791 157.144 414.632 156.934 415.568 156.934C416.586 156.934 417.495 157.165 418.295 157.626C419.109 158.074 419.747 158.711 420.208 159.539C420.669 160.353 420.9 161.296 420.9 162.368C420.9 163.453 420.669 164.403 420.208 165.217C419.747 166.031 419.109 166.668 418.295 167.13C417.495 167.591 416.586 167.821 415.568 167.821ZM410.053 171.668V157.036H411.437V160.251L411.294 162.388L411.498 164.545V171.668H410.053ZM415.466 166.539C416.226 166.539 416.904 166.37 417.501 166.031C418.098 165.678 418.573 165.189 418.926 164.565C419.279 163.928 419.455 163.195 419.455 162.368C419.455 161.54 419.279 160.814 418.926 160.19C418.573 159.566 418.098 159.078 417.501 158.725C416.904 158.372 416.226 158.196 415.466 158.196C414.707 158.196 414.021 158.372 413.411 158.725C412.814 159.078 412.339 159.566 411.986 160.19C411.647 160.814 411.478 161.54 411.478 162.368C411.478 163.195 411.647 163.928 411.986 164.565C412.339 165.189 412.814 165.678 413.411 166.031C414.021 166.37 414.707 166.539 415.466 166.539ZM423.845 167.72V157.036H425.229V159.946L425.087 159.437C425.385 158.623 425.887 158.006 426.593 157.585C427.298 157.151 428.173 156.934 429.218 156.934V158.338C429.164 158.338 429.109 158.338 429.055 158.338C429.001 158.325 428.947 158.318 428.892 158.318C427.766 158.318 426.884 158.664 426.247 159.356C425.609 160.034 425.29 161.004 425.29 162.266V167.72H423.845ZM430.853 167.72V166.763L437.976 157.748L438.281 158.236H430.975V157.036H439.421V157.972L432.319 167.007L431.952 166.519H439.563V167.72H430.853ZM442.29 171.769C441.788 171.769 441.306 171.688 440.845 171.525C440.397 171.362 440.011 171.118 439.685 170.793L440.357 169.714C440.628 169.972 440.92 170.169 441.232 170.304C441.557 170.453 441.917 170.528 442.31 170.528C442.785 170.528 443.192 170.392 443.531 170.121C443.884 169.863 444.216 169.402 444.528 168.737L445.22 167.17L445.383 166.946L449.779 157.036H451.203L445.851 169.002C445.553 169.694 445.22 170.243 444.854 170.65C444.501 171.057 444.115 171.342 443.694 171.505C443.273 171.681 442.805 171.769 442.29 171.769ZM445.139 168.025L440.214 157.036H441.72L446.075 166.845L445.139 168.025ZM451.353 171.769C450.919 171.769 450.505 171.708 450.111 171.586C449.704 171.478 449.365 171.308 449.094 171.078L449.603 169.979C450.037 170.345 450.593 170.528 451.271 170.528C451.841 170.528 452.275 170.359 452.574 170.019C452.886 169.68 453.042 169.178 453.042 168.513V157.036H454.487V168.513C454.487 169.504 454.215 170.291 453.673 170.874C453.144 171.471 452.37 171.769 451.353 171.769ZM453.775 154.675C453.476 154.675 453.225 154.573 453.022 154.37C452.818 154.166 452.716 153.922 452.716 153.637C452.716 153.352 452.818 153.115 453.022 152.925C453.225 152.721 453.476 152.62 453.775 152.62C454.073 152.62 454.324 152.715 454.528 152.905C454.731 153.094 454.833 153.332 454.833 153.617C454.833 153.915 454.731 154.166 454.528 154.37C454.338 154.573 454.087 154.675 453.775 154.675ZM463.063 167.821C461.95 167.821 460.973 167.591 460.132 167.13C459.291 166.655 458.633 166.01 458.158 165.196C457.683 164.369 457.446 163.426 457.446 162.368C457.446 161.309 457.67 160.373 458.118 159.559C458.579 158.745 459.203 158.108 459.99 157.646C460.79 157.171 461.686 156.934 462.676 156.934C463.68 156.934 464.569 157.165 465.342 157.626C466.129 158.074 466.746 158.711 467.194 159.539C467.642 160.353 467.866 161.296 467.866 162.368C467.866 162.435 467.859 162.51 467.845 162.591C467.845 162.659 467.845 162.734 467.845 162.815H458.545V161.737H467.072L466.502 162.164C466.502 161.391 466.332 160.706 465.993 160.109C465.668 159.498 465.22 159.023 464.65 158.684C464.08 158.345 463.422 158.175 462.676 158.175C461.944 158.175 461.286 158.345 460.702 158.684C460.119 159.023 459.664 159.498 459.339 160.109C459.013 160.719 458.85 161.418 458.85 162.205V162.429C458.85 163.243 459.027 163.962 459.379 164.586C459.746 165.196 460.248 165.678 460.885 166.031C461.537 166.37 462.276 166.539 463.104 166.539C463.755 166.539 464.358 166.424 464.915 166.193C465.485 165.963 465.973 165.61 466.38 165.135L467.194 166.071C466.719 166.641 466.122 167.075 465.403 167.374C464.698 167.672 463.918 167.821 463.063 167.821ZM484.156 156.934C485.025 156.934 485.778 157.104 486.415 157.443C487.067 157.768 487.569 158.27 487.921 158.949C488.288 159.627 488.471 160.482 488.471 161.513V167.72H487.026V161.655C487.026 160.529 486.755 159.681 486.212 159.111C485.683 158.528 484.93 158.236 483.953 158.236C483.22 158.236 482.583 158.392 482.04 158.704C481.511 159.003 481.097 159.444 480.799 160.027C480.514 160.597 480.371 161.289 480.371 162.103V167.72H478.926V161.655C478.926 160.529 478.655 159.681 478.112 159.111C477.57 158.528 476.81 158.236 475.833 158.236C475.114 158.236 474.483 158.392 473.94 158.704C473.398 159.003 472.977 159.444 472.679 160.027C472.394 160.597 472.251 161.289 472.251 162.103V167.72H470.806V157.036H472.19V159.925L471.966 159.417C472.292 158.643 472.814 158.04 473.533 157.606C474.266 157.158 475.128 156.934 476.118 156.934C477.163 156.934 478.051 157.199 478.784 157.728C479.517 158.243 479.991 159.023 480.208 160.068L479.639 159.844C479.951 158.976 480.5 158.277 481.287 157.748C482.087 157.205 483.044 156.934 484.156 156.934ZM497.843 156.934C498.711 156.934 499.471 157.104 500.122 157.443C500.787 157.768 501.303 158.27 501.669 158.949C502.049 159.627 502.239 160.482 502.239 161.513V167.72H500.794V161.655C500.794 160.529 500.509 159.681 499.939 159.111C499.383 158.528 498.596 158.236 497.579 158.236C496.819 158.236 496.154 158.392 495.584 158.704C495.028 159.003 494.594 159.444 494.282 160.027C493.983 160.597 493.834 161.289 493.834 162.103V167.72H492.389V157.036H493.773V159.966L493.549 159.417C493.888 158.643 494.431 158.04 495.177 157.606C495.923 157.158 496.812 156.934 497.843 156.934ZM510.497 167.821C509.466 167.821 508.536 167.591 507.709 167.13C506.895 166.655 506.25 166.01 505.775 165.196C505.3 164.369 505.063 163.426 505.063 162.368C505.063 161.296 505.3 160.353 505.775 159.539C506.25 158.725 506.895 158.087 507.709 157.626C508.523 157.165 509.452 156.934 510.497 156.934C511.555 156.934 512.491 157.165 513.305 157.626C514.133 158.087 514.777 158.725 515.238 159.539C515.713 160.353 515.951 161.296 515.951 162.368C515.951 163.426 515.713 164.369 515.238 165.196C514.777 166.01 514.133 166.655 513.305 167.13C512.477 167.591 511.541 167.821 510.497 167.821ZM510.497 166.539C511.27 166.539 511.955 166.37 512.552 166.031C513.149 165.678 513.617 165.189 513.956 164.565C514.309 163.928 514.485 163.195 514.485 162.368C514.485 161.526 514.309 160.794 513.956 160.17C513.617 159.546 513.149 159.064 512.552 158.725C511.955 158.372 511.277 158.196 510.517 158.196C509.757 158.196 509.079 158.372 508.482 158.725C507.885 159.064 507.41 159.546 507.057 160.17C506.705 160.794 506.528 161.526 506.528 162.368C506.528 163.195 506.705 163.928 507.057 164.565C507.41 165.189 507.885 165.678 508.482 166.031C509.079 166.37 509.75 166.539 510.497 166.539ZM521.77 167.821C520.888 167.821 520.054 167.699 519.267 167.455C518.48 167.197 517.863 166.879 517.415 166.499L518.066 165.359C518.5 165.685 519.056 165.97 519.735 166.214C520.413 166.444 521.125 166.56 521.872 166.56C522.889 166.56 523.622 166.404 524.07 166.092C524.517 165.766 524.741 165.339 524.741 164.81C524.741 164.416 524.612 164.111 524.354 163.894C524.11 163.663 523.785 163.494 523.378 163.385C522.971 163.263 522.516 163.161 522.014 163.08C521.512 162.998 521.01 162.903 520.508 162.795C520.02 162.686 519.572 162.53 519.165 162.327C518.758 162.11 518.426 161.818 518.168 161.452C517.924 161.085 517.802 160.597 517.802 159.987C517.802 159.403 517.964 158.881 518.29 158.42C518.616 157.958 519.09 157.599 519.714 157.341C520.352 157.07 521.125 156.934 522.034 156.934C522.726 156.934 523.418 157.029 524.11 157.219C524.802 157.395 525.372 157.633 525.82 157.931L525.189 159.091C524.714 158.766 524.205 158.535 523.662 158.399C523.12 158.25 522.577 158.175 522.034 158.175C521.071 158.175 520.359 158.345 519.898 158.684C519.45 159.01 519.226 159.43 519.226 159.946C519.226 160.353 519.348 160.672 519.592 160.902C519.85 161.133 520.183 161.316 520.59 161.452C521.01 161.574 521.465 161.676 521.953 161.757C522.455 161.838 522.95 161.94 523.439 162.062C523.941 162.171 524.395 162.327 524.802 162.53C525.223 162.72 525.555 162.998 525.799 163.365C526.057 163.717 526.186 164.186 526.186 164.769C526.186 165.393 526.01 165.936 525.657 166.397C525.318 166.845 524.816 167.197 524.151 167.455C523.5 167.699 522.706 167.821 521.77 167.821ZM520.508 155.367L523.296 152.844H525.229L521.933 155.367H520.508ZM533.274 167.821C532.215 167.821 531.266 167.591 530.425 167.13C529.597 166.655 528.946 166.01 528.471 165.196C527.996 164.369 527.759 163.426 527.759 162.368C527.759 161.296 527.996 160.353 528.471 159.539C528.946 158.725 529.597 158.087 530.425 157.626C531.266 157.165 532.215 156.934 533.274 156.934C534.183 156.934 535.003 157.11 535.736 157.463C536.469 157.816 537.045 158.345 537.466 159.05L536.387 159.783C536.021 159.24 535.566 158.84 535.024 158.582C534.481 158.325 533.891 158.196 533.253 158.196C532.494 158.196 531.808 158.372 531.198 158.725C530.587 159.064 530.106 159.546 529.753 160.17C529.4 160.794 529.224 161.526 529.224 162.368C529.224 163.209 529.4 163.941 529.753 164.565C530.106 165.189 530.587 165.678 531.198 166.031C531.808 166.37 532.494 166.539 533.253 166.539C533.891 166.539 534.481 166.411 535.024 166.153C535.566 165.895 536.021 165.502 536.387 164.972L537.466 165.705C537.045 166.397 536.469 166.926 535.736 167.292C535.003 167.645 534.183 167.821 533.274 167.821ZM540.145 167.72V157.036H541.59V167.72H540.145ZM540.878 154.675C540.579 154.675 540.328 154.573 540.125 154.37C539.921 154.166 539.82 153.922 539.82 153.637C539.82 153.352 539.921 153.115 540.125 152.925C540.328 152.721 540.579 152.62 540.878 152.62C541.176 152.62 541.427 152.715 541.631 152.905C541.834 153.094 541.936 153.332 541.936 153.617C541.936 153.915 541.834 154.166 541.631 154.37C541.441 154.573 541.19 154.675 540.878 154.675ZM552.306 167.72V165.359L552.245 164.972V161.024C552.245 160.115 551.987 159.417 551.471 158.928C550.969 158.44 550.216 158.196 549.213 158.196C548.521 158.196 547.863 158.311 547.239 158.542C546.614 158.772 546.085 159.078 545.651 159.457L545 158.379C545.543 157.918 546.194 157.565 546.954 157.321C547.713 157.063 548.514 156.934 549.355 156.934C550.739 156.934 551.804 157.28 552.55 157.972C553.31 158.65 553.69 159.688 553.69 161.085V167.72H552.306ZM548.622 167.821C547.822 167.821 547.123 167.693 546.526 167.435C545.943 167.163 545.495 166.797 545.183 166.336C544.871 165.861 544.715 165.318 544.715 164.708C544.715 164.152 544.844 163.65 545.102 163.202C545.373 162.741 545.807 162.374 546.404 162.103C547.015 161.818 547.829 161.676 548.846 161.676H552.53V162.754H548.887C547.856 162.754 547.137 162.937 546.73 163.304C546.336 163.67 546.14 164.124 546.14 164.667C546.14 165.278 546.377 165.766 546.852 166.132C547.327 166.499 547.992 166.682 548.846 166.682C549.66 166.682 550.359 166.499 550.942 166.132C551.539 165.753 551.973 165.21 552.245 164.504L552.57 165.502C552.299 166.207 551.824 166.77 551.146 167.191C550.481 167.611 549.64 167.821 548.622 167.821ZM552.387 172.197C551.709 172.197 551.166 172.02 550.759 171.668C550.352 171.315 550.149 170.847 550.149 170.264C550.149 169.938 550.23 169.592 550.393 169.226C550.569 168.873 550.868 168.52 551.288 168.167C551.709 167.815 552.285 167.482 553.018 167.17L553.69 167.72C553.038 168.005 552.53 168.283 552.163 168.554C551.811 168.839 551.56 169.11 551.41 169.368C551.275 169.639 551.207 169.904 551.207 170.162C551.207 170.542 551.329 170.827 551.573 171.017C551.831 171.206 552.15 171.301 552.53 171.301C552.76 171.301 552.984 171.267 553.201 171.2C553.432 171.132 553.629 171.037 553.791 170.915L554.117 171.708C553.873 171.858 553.601 171.973 553.303 172.054C553.018 172.149 552.713 172.197 552.387 172.197Z" fill="#0ea5e9" fill-opacity="0.8"/>
<path d="M241.826 153.252C241.521 153.61 241.289 153.954 241.13 154.285C240.971 154.616 240.859 154.908 240.793 155.16C240.713 155.451 240.667 155.723 240.653 155.974L239.103 156.094C239.13 155.498 239.262 154.921 239.501 154.365C239.752 153.808 240.051 153.358 240.395 153.013L241.826 153.252ZM243.774 164.639C243.31 165.183 242.84 165.673 242.363 166.11C241.899 166.547 241.455 166.925 241.031 167.243C240.607 167.561 240.216 167.806 239.858 167.978C239.501 168.164 239.196 168.27 238.944 168.296C238.918 168.309 238.865 168.316 238.785 168.316C238.534 168.316 238.269 168.256 237.99 168.137C237.712 168.018 237.454 167.859 237.215 167.66C236.977 167.461 236.778 167.243 236.619 167.004C236.46 166.753 236.381 166.507 236.381 166.269V166.229C236.407 165.964 236.487 165.514 236.619 164.878C236.725 164.321 236.897 163.54 237.136 162.533C237.374 161.513 237.719 160.155 238.169 158.459L239.799 158.757C239.256 160.598 238.905 162.102 238.746 163.268C238.587 164.434 238.507 165.315 238.507 165.911C238.507 166.083 238.507 166.236 238.507 166.368C238.507 166.488 238.514 166.587 238.527 166.666C238.54 166.759 238.553 166.839 238.567 166.905C239.057 166.653 239.567 166.355 240.097 166.011C240.547 165.706 241.044 165.335 241.587 164.898C242.131 164.46 242.661 163.95 243.177 163.367L243.774 164.639Z" fill="#0ea5e9" fill-opacity="0.8"/>
<path d="M174.725 74.9717L142.833 82.581C131.179 85.3617 122.956 95.7772 122.956 107.759V111.163C122.923 97.9922 112.236 87.3254 99.0582 87.3254H71.1875L71.1875 146.19H99.0582C112.237 146.19 122.923 156.857 122.956 170.028V169.338C122.956 156.157 132.862 145.081 145.961 143.614L174.725 140.395L174.725 74.9717Z" fill="#0ea5e9"/>
</g>
<defs>
<clipPath id="clip0_199_7968">
<rect width="843" height="245" rx="20" fill-opacity="0"/>
</clipPath>
</defs>
</svg>
