<svg width="512" height="512" viewBox="0 0 512 512" fill="none" xmlns="http://www.w3.org/2000/svg">
<g clip-path="url(#clip0_70_2)">
<path d="M199.469 44.9707C226.799 2.74315 288.585 2.74316 315.916 44.9707C326.631 61.5258 346.46 69.7391 365.743 65.6094C414.928 55.0759 458.617 98.7645 448.083 147.949C443.953 167.232 452.167 187.061 468.722 197.776C510.949 225.107 510.949 286.893 468.722 314.224C452.167 324.939 443.953 344.768 448.083 364.051C458.617 413.236 414.928 456.924 365.743 446.391C346.46 442.261 326.631 450.474 315.916 467.029C288.585 509.257 226.799 509.257 199.469 467.029C188.754 450.474 168.924 442.261 149.642 446.391C100.457 456.924 56.7683 413.236 67.3018 364.051C71.4315 344.768 63.2182 324.939 46.6631 314.224C4.43554 286.893 4.43554 225.107 46.6631 197.776C63.2182 187.061 71.4315 167.232 67.3018 147.949C56.7683 98.7645 100.457 55.0759 149.642 65.6094C168.924 69.7391 188.754 61.5258 199.469 44.9707Z" fill="#252422" stroke="#EB5E28" stroke-width="21.8507"/>
</g>
<defs>
<clipPath id="clip0_70_2">
<rect width="512" height="512" fill="white"/>
</clipPath>
</defs>
</svg>
